<svg xmlns="http://www.w3.org/2000/svg" viewBox="0 0 512 512" width="512" height="512">
  <defs>
    <radialGradient id="bgGrad" cx="50%" cy="50%" r="50%">
      <stop offset="0%" stop-color="#1a4a6b"/>
      <stop offset="100%" stop-color="#0a1f35"/>
    </radialGradient>
    <radialGradient id="faceGrad" cx="45%" cy="35%" r="55%">
      <stop offset="0%" stop-color="#e8956a"/>
      <stop offset="100%" stop-color="#c4703f"/>
    </radialGradient>
    <linearGradient id="boliAzul" x1="0%" y1="0%" x2="100%" y2="100%">
      <stop offset="0%" stop-color="#74C0FC"/>
      <stop offset="100%" stop-color="#4D96FF"/>
    </linearGradient>
    <linearGradient id="boliRosa" x1="0%" y1="0%" x2="100%" y2="100%">
      <stop offset="0%" stop-color="#FF8FAB"/>
      <stop offset="100%" stop-color="#FF4D6D"/>
    </linearGradient>
    <linearGradient id="boliVerde" x1="0%" y1="0%" x2="100%" y2="100%">
      <stop offset="0%" stop-color="#6BCB77"/>
      <stop offset="100%" stop-color="#2d9e3c"/>
    </linearGradient>
    <linearGradient id="blusaGrad" x1="0%" y1="0%" x2="100%" y2="100%">
      <stop offset="0%" stop-color="#FF6B6B"/>
      <stop offset="100%" stop-color="#c0392b"/>
    </linearGradient>
    <filter id="shadow" x="-20%" y="-20%" width="140%" height="140%">
      <feDropShadow dx="0" dy="3" stdDeviation="4" flood-color="rgba(0,0,0,0.4)"/>
    </filter>
  </defs>
  <rect width="512" height="512" rx="80" fill="url(#bgGrad)"/>
  <circle cx="60" cy="60" r="30" fill="rgba(255,217,61,0.08)"/>
  <circle cx="450" cy="80" r="40" fill="rgba(107,203,119,0.07)"/>
  <circle cx="80" cy="430" r="35" fill="rgba(77,150,255,0.07)"/>
  <circle cx="440" cy="420" r="45" fill="rgba(255,107,107,0.07)"/>
  <ellipse cx="256" cy="490" rx="120" ry="18" fill="rgba(0,0,0,0.3)"/>
  <path d="M156 310 Q180 280 256 275 Q332 280 356 310 L370 430 Q256 460 142 430 Z" fill="url(#blusaGrad)" filter="url(#shadow)"/>
  <circle cx="220" cy="340" r="8" fill="rgba(255,255,255,0.2)"/>
  <circle cx="295" cy="355" r="7" fill="rgba(255,255,255,0.18)"/>
  <rect x="232" y="262" width="48" height="30" rx="10" fill="#d4845a"/>
  <ellipse cx="256" cy="210" rx="78" ry="85" fill="url(#faceGrad)" filter="url(#shadow)"/>
  <path d="M178 195 Q170 120 200 100 Q230 82 256 78 Q282 82 312 100 Q342 120 334 195" fill="#2C1810"/>
  <path d="M178 195 Q172 230 185 250" fill="#2C1810"/>
  <path d="M334 195 Q338 230 327 250" fill="#2C1810"/>
  <path d="M198 140 Q220 130 256 128 Q292 130 314 140 Q300 118 256 112 Q212 118 198 140Z" fill="#1a0e08"/>
  <circle cx="180" cy="218" r="10" fill="#FFD93D"/>
  <circle cx="180" cy="218" r="6" fill="#FF9F1C"/>
  <circle cx="332" cy="218" r="10" fill="#FFD93D"/>
  <circle cx="332" cy="218" r="6" fill="#FF9F1C"/>
  <ellipse cx="226" cy="205" rx="14" ry="13" fill="white"/>
  <ellipse cx="226" cy="207" rx="9" ry="9" fill="#3d1f00"/>
  <ellipse cx="226" cy="207" rx="5" ry="5" fill="#1a0a00"/>
  <circle cx="229" cy="204" r="3" fill="white"/>
  <ellipse cx="286" cy="205" rx="14" ry="13" fill="white"/>
  <ellipse cx="286" cy="207" rx="9" ry="9" fill="#3d1f00"/>
  <ellipse cx="286" cy="207" rx="5" ry="5" fill="#1a0a00"/>
  <circle cx="289" cy="204" r="3" fill="white"/>
  <path d="M212 188 Q226 182 240 186" fill="none" stroke="#2C1810" stroke-width="3.5" stroke-linecap="round"/>
  <path d="M272 186 Q286 182 300 188" fill="none" stroke="#2C1810" stroke-width="3.5" stroke-linecap="round"/>
  <path d="M218 248 Q256 282 294 248" fill="white" stroke="#d4845a" stroke-width="1"/>
  <path d="M218 248 Q256 272 294 248 Q270 265 256 267 Q242 265 218 248Z" fill="#e05050"/>
  <path d="M160 310 Q130 340 115 380 Q110 400 125 405 Q140 408 148 388 Q158 360 175 335" fill="#d4845a" filter="url(#shadow)"/>
  <ellipse cx="122" cy="405" rx="22" ry="18" fill="#d4845a"/>
  <path d="M352 310 Q375 340 385 380 Q390 400 378 408 Q364 412 355 390 Q342 362 330 335" fill="#d4845a" filter="url(#shadow)"/>
  <ellipse cx="382" cy="408" rx="22" ry="18" fill="#d4845a"/>
  <g transform="translate(68, 280) rotate(-20)">
    <rect x="-8" y="-60" width="16" height="70" rx="8" fill="url(#boliAzul)" filter="url(#shadow)"/>
    <ellipse cx="0" cy="-60" rx="8" ry="5" fill="#a8d8fa"/>
    <line x1="0" y1="10" x2="0" y2="35" stroke="#deb887" stroke-width="3" stroke-linecap="round"/>
  </g>
  <g transform="translate(98, 265) rotate(-5)">
    <rect x="-8" y="-60" width="16" height="70" rx="8" fill="url(#boliRosa)" filter="url(#shadow)"/>
    <ellipse cx="0" cy="-60" rx="8" ry="5" fill="#ffb3c6"/>
    <line x1="0" y1="10" x2="0" y2="35" stroke="#deb887" stroke-width="3" stroke-linecap="round"/>
  </g>
  <g transform="translate(128, 262) rotate(10)">
    <rect x="-8" y="-60" width="16" height="70" rx="8" fill="url(#boliVerde)" filter="url(#shadow)"/>
    <ellipse cx="0" cy="-60" rx="8" ry="5" fill="#9be3a2"/>
    <line x1="0" y1="10" x2="0" y2="35" stroke="#deb887" stroke-width="3" stroke-linecap="round"/>
  </g>
  <g transform="translate(156, 265) rotate(22)">
    <rect x="-8" y="-60" width="16" height="70" rx="8" fill="#FFD93D" filter="url(#shadow)"/>
    <ellipse cx="0" cy="-60" rx="8" ry="5" fill="#ffe57a"/>
    <line x1="0" y1="10" x2="0" y2="35" stroke="#deb887" stroke-width="3" stroke-linecap="round"/>
  </g>
  <text x="256" y="478" text-anchor="middle" font-family="'Georgia', serif" font-size="28" font-weight="bold" fill="#FFD93D" filter="url(#shadow)" letter-spacing="1">Bolis de Mari</text>
</svg>
